<?xml version="1.0" encoding="UTF-8"?>
<svg width="907px" height="607px" viewBox="0 0 907 607" xmlns="http://www.w3.org/2000/svg" xmlns:xlink="http://www.w3.org/1999/xlink" version="1.1">
 <!-- Generated by Pixelmator Pro 1.3.1 -->
 <path id="path" d="M547.1 308.3 C547.1 308.3 547.1 308.1 547.1 308.3 547.3 308.3 547.3 308.3 547.1 308.3 Z" fill="#ff4500" fill-opacity="1" stroke="none"/>
 <path id="path-1" d="M23.1 247.3 C17.1 244.7 13.9 230.7 13.9 230.7 23.3 243.9 37.8 242.2 44 232.8 50.2 223.4 93.5 183.9 93.5 183.9 92 173.4 168.2 128.4 175.3 128.4 179.4 128.4 180.9 129.2 180.9 130.3 181.1 130.3 181.3 130.5 181.7 130.5 189.2 133.5 232.1 197.3 260.5 240.7 L266.7 223.2 269 224 C269.6 222.1 270.5 220.2 271.6 219.5 272.7 218.6 274.2 218.6 276.3 220.3 280.4 223.9 286.6 251.1 291.7 276.2 297.9 270.4 305.1 263.6 313.3 255.7 312.9 231.2 311.8 151.3 312.2 147.7 312.2 147.7 293.6 170.5 272.5 195.1 264.2 197.4 226.2 248 216.5 254.5 216.5 254.5 208.4 260.1 190.2 245.5 204.1 254 208.1 251.7 208.1 251.7 208.1 251.7 202.6 250.6 195.3 241.7 207.5 249.4 219.2 248.7 219.2 248.7 223.3 248.7 267.2 192.8 267.7 188.3 289.1 159.9 310.6 133.2 315.1 138.1 320.4 143.6 323.9 147.7 323.9 147.7 326.9 151.5 328.6 214.9 329.2 240.1 333.5 235.6 338 230.9 342.9 225.8 357.6 210.2 372.2 199.5 386.2 191.8 389.6 175.8 398.4 139.3 412.9 129.2 413.1 129.2 415.5 128.8 415.5 128.8 415.9 127.9 413.1 125 413.1 125 L499.9 161 C522.5 149 542.6 161.2 548.1 166.3 553.7 171.4 566 172.3 573.7 176.1 590.6 151.8 661.5 59.5 675.8 46.9 683.1 40.5 689 39.2 692.4 39.8 692.4 39.8 875.8 10.8 884.4 11.2 893.1 11.4 888 8.4 893.1 11.4 898.9 15 821.6 27.8 821.6 27.8 821.6 27.8 696.9 42.7 695 43.2 L695 43.2 C694.6 43.6 693.9 43.8 692.9 43.8 685.6 44.4 646.4 89.9 637.4 99.8 629.9 107.9 591.3 160.7 578 179.2 578.2 179.4 578.4 179.4 578.4 179.6 580.7 182.4 581.8 186 583.3 190.9 606.1 186 627.7 194.5 627.7 194.5 627.7 194.5 631.3 211.2 733.6 195.6 835.9 179.8 878.8 212.5 888.8 225.3 898.8 237.9 886 235.5 886 235.5 824.1 183.6 725.2 202.6 698.1 206.7 671 210.8 637.5 213.3 624.9 203.7 617.4 197.9 599.3 198.4 586 199.7 588.4 206.3 591.8 214.6 598.4 224.7 614.2 249.5 611.8 278.3 600.5 283.9 601.3 267.5 546.3 270.2 532.4 257.6 518.5 245 507.8 234.1 500.6 230 496.3 227.6 479.9 220 474.3 207.1 473.7 207.3 473 206.9 472 205.8 468 200.7 444.7 220.8 417.6 244.9 417.8 247.3 418.2 250.2 418.4 253.6 426.1 242.3 434.8 233.5 442.3 235.2 453.4 233.3 483.1 237.5 550.3 297.5 550.3 297.5 614.4 330.2 616.1 340.8 615.9 342.3 658.4 347.8 662.7 353.4 667.2 359 680 348.9 680 348.9 L667.2 359.1 681.9 364.4 C681.9 364.4 648.2 358.4 643 354.8 637.7 351.2 624.4 344.6 617.8 351.2 610.5 348.2 574.5 308.7 547.1 302.3 545.8 304.7 545.2 307.6 547.3 308.9 543 305.9 464.7 255.5 442.5 241.2 436.9 255.3 443.1 292.5 413.9 317.9 L527.9 449.7 527.9 449.7 C527.9 449.7 555.9 475.8 568 479.2 573.6 480.9 583.8 480.9 591.5 477.5 586.4 484.3 576.5 484.5 576.5 484.5 576.5 484.5 585.9 489 594.6 487.5 586.3 496 566.2 484.9 566.2 484.9 566.2 484.9 536.9 458.8 527.3 456.5 526.2 456.7 525.4 460.4 525.4 460.4 L408.4 322 C387.7 337 387.7 323.5 391.1 310.5 L392 302.6 374.9 282.3 374.9 282.3 374.9 282.3 C377 303.2 374 335.7 365.7 343.2 365.1 344 364.4 344.5 363.6 344.9 352.9 352.6 347.8 339.1 347.8 339.1 L347.8 339.1 C339.1 332.7 329.7 322.7 323.9 314.6 321.8 315.4 319.6 316.3 317.5 317 319.9 321.9 323.5 330.7 322 337.5 319.9 347.3 307.5 365 301.5 364.8 295.5 364.6 282.7 364.6 279.5 362.9 278.4 362.3 276.7 346.9 274.8 327 263 328.7 255.2 328.9 255.2 328.9 250.1 347.9 236 364.8 218.7 378.7 218.7 378.7 183.5 489.3 171.3 526.5 158.7 526.1 145.9 597.6 128.8 600.4 138 590.4 135.9 583.3 135.9 583.3 135.9 583.3 124 596.5 115 596.7 152.1 573.6 160.1 521.5 160.1 521.5 L208.6 386.3 C169.9 413.6 120.6 428.4 111.9 425.2 98.2 420.3 70.9 430.5 57.2 425.6 57.2 425.6 45.5 419.6 48.7 385.3 60 286 143.7 270.4 167.6 263.2 183.6 258.3 225.3 261.5 245.8 282.9 L253.1 262.6 C225.6 216.1 178.4 143.7 174.9 140.3 174.5 139.9 174.1 139.4 173.8 138.8 156.9 153.3 109.5 191.3 98.6 190 98.6 190 97.3 192.1 95.8 190.2 95 190.8 94.3 191.3 93.2 191.9 78.2 201.3 46 241 46 241 21.4 269.2 5 246.1 5.4 242.9 11.8 250.4 13.1 243.4 23.1 247.3 Z M477.5 181.3 C478.8 179.2 480.3 177.2 482.2 175.1 485 171.9 487.7 169.3 490.5 167 473.9 165.9 428.2 146.3 416.2 141 412.6 153.8 405.3 172.4 401.5 184.1 444.9 167.2 477.5 181.3 477.5 181.3 Z M392.8 293.1 L396.6 262.8 C391 267.9 385.1 273 379.7 277.7 L392.8 293.1 Z M352.6 311.3 C353.5 306.8 354.7 301.9 355.6 297.2 352.4 299.5 349.2 301.5 345.8 303.6 348.1 306 350.3 308.7 352.6 311.3 Z M267.9 242.8 L265.6 248.8 C266.5 250.3 267.7 251.8 268.6 253.3 268.5 249.4 268.1 245.8 267.9 242.8 Z M250.8 289.7 C253.6 294 255.5 299.1 256.4 304.6 259 302.9 263.5 299.9 270.1 294.6 267.7 289.3 263.3 281.1 257.5 271.1 L250.8 289.7 Z" fill="#ff4500" fill-opacity="1" stroke="none"/>
</svg>
